# xmcd
#
# Track frame offsets:
#	150
#	17912
#	34459
#	52483
#	67002
#	80385
#	98623
#	110468
#	130683
#	148145
#	162901
#	183788
#	201638
#
# Disc length: 2909 seconds
#
# Revision: 0
# Processed by: cddbd v1.5.2PL0 Copyright (c) Steve Scherf et al.
# Submitted via: audiograbber 1.83.01
#
DISCID=c00b5b0d
DTITLE=Carrie Underwood - Play On
DYEAR=2009
DGENRE=Country
TTITLE0=Cowboy Casanova
TTITLE1=Quitter
TTITLE2=Mama's Song
TTITLE3=Change
TTITLE4=Undo It
TTITLE5=Someday When I Stop Loving You
TTITLE6=Songs Like This
TTITLE7=Temporary Home
TTITLE8=This Time
TTITLE9=Look At Me
TTITLE10=Unapologize
TTITLE11=What Can I Say (Feat. Sons Of Sylvia)
TTITLE12=Play On
EXTD=
EXTT0=
EXTT1=
EXTT2=
EXTT3=
EXTT4=
EXTT5=
EXTT6=
EXTT7=
EXTT8=
EXTT9=
EXTT10=
EXTT11=
EXTT12=
PLAYORDER=
